<?xml version="1.0" encoding="utf-8"?>
<!-- Generator: Adobe Illustrator 23.0.0, SVG Export Plug-In . SVG Version: 6.00 Build 0)  -->
<svg version="1.1" xmlns="http://www.w3.org/2000/svg" xmlns:xlink="http://www.w3.org/1999/xlink" x="0px" y="0px"
	 viewBox="0 0 600 400" style="enable-background:new 0 0 600 400;" xml:space="preserve">
<style type="text/css">
	.st0{fill:none;}
	.st1{opacity:0;fill:none;}
	.st2{fill:#22B573;}
	.st3{fill:#006837;}
	.st4{fill:#F7A27E;}
	.st5{fill:#E44C37;}
	.st6{fill:#A65137;}
	.st7{fill:#142736;}
	.st8{fill:#FFFFFF;}
	.st9{fill:#4083ED;}
	.st10{fill:#D1E2FF;}
	.st11{fill:#245BB3;}
	.st12{fill:#85B2FF;}
	.st13{fill:#42BD83;}
	.st14{clip-path:url(#SVGID_2_);}
	.st15{fill:#AB3535;}
	.st16{fill:#FFE0AB;}
	.st17{fill:#FFAB8C;}
	.st18{fill:#331338;}
	.st19{fill:#FDFCFA;}
	.st20{fill:#FFCF7D;}
</style>
<g id="bg">
	<rect class="st0" width="600" height="400"/>
	<rect class="st1" width="600" height="400"/>
	<path class="st2" d="M501.2,276.2c-8.4-3.7-17.3-6.7-25.3-9.8c-6.3-2.5-24.7-8.4-20.4-18.6c0.8-1.9,2.4-3.4,4-4.8
		c10-8.5,59.4-20.8,54.6-39.2c-1.8-7-15.7-10-34.9-8.7c3.9-3.4,5.8-6.7,5-9.6c-2.2-8.3-25.8-9.3-52.9-2.2c-3.8,1-7.4,2.1-10.9,3.3
		c-15.1,2.9-32.4,3.6-33-7.9c-0.9-17.9,69.8-45.3,88.4-52.1c1.5-0.5,3-1.1,4.4-1.6c0,0,0,0,0,0c31.1-11.7,48.4-26.2,46.1-43.2
		C521,42.2,405.5,21.1,270.5,45.6c-146.2,26.6-241.4,63.8-235.2,101c1.8,10.8,19.8,13.2,28.1,14.5c13.8,2.3,27.8,2.6,41.8,2.9
		c12.2,0.3,29.6-1.7,40.4,4.9c23,13.9-12.8,33.6-24.3,39.5c-17.4,8.9-56.2,25.5-49.6,50.8c2.8,10.8,16.3,17.8,35.8,20.2
		c0,0,0,0,0.1,0c1.2,0.1,2.4,0.3,3.6,0.4c9.1,1.2,32,5.7,31.7,21c-0.4,20.8-22.5,30.7-32.9,45.7c-1.2,1.7-2.3,3.5-2.5,5.6
		c-1.5,17.2,51,10.2,59.5,8.8c81.6-13.4,98.6-35.7,292.3-31.6c31.8,0.7,52.3,5.5,68-10.1c7.8-7.7,5.6-18-0.9-25.6
		C519.9,285.8,510.8,280.5,501.2,276.2z"/>
	<rect x="70.2" y="38.5" transform="matrix(0.866 -0.5 0.5 0.866 -13.3409 46.2875)" class="st3" width="19.1" height="19.1"/>
	
		<rect x="543.5" y="267" transform="matrix(0.6712 0.7413 -0.7413 0.6712 382.9422 -317.5343)" class="st3" width="11.8" height="11.8"/>
	<rect x="179.9" y="38.8" transform="matrix(0.9098 -0.4151 0.4151 0.9098 -1.1563 80.1939)" class="st3" width="8" height="8"/>
	<rect x="119.5" y="34.8" transform="matrix(0.9098 -0.4151 0.4151 0.9098 -4.9674 54.7465)" class="st3" width="8" height="8"/>
	<rect x="67.5" y="89.1" transform="matrix(0.9097 -0.4152 0.4152 0.9097 -31.634 37.1942)" class="st3" width="4.5" height="4.5"/>
	
		<rect x="511.9" y="349.5" transform="matrix(0.9097 -0.4152 0.4152 0.9097 -99.6239 245.2179)" class="st3" width="4.5" height="4.5"/>
	
		<rect x="508.9" y="25" transform="matrix(0.7522 0.6589 -0.6589 0.7522 148.0009 -331.5565)" class="st3" width="11.9" height="11.9"/>
	
		<rect x="533.8" y="61.4" transform="matrix(0.9098 -0.4151 0.4151 0.9098 21.9543 228.2916)" class="st3" width="4.5" height="4.5"/>
	
		<rect x="509.7" y="242.8" transform="matrix(0.9098 -0.4151 0.4151 0.9098 -55.5481 234.6301)" class="st3" width="4.5" height="4.5"/>
	
		<rect x="451.8" y="219.8" transform="matrix(0.9098 -0.4151 0.4151 0.9098 -51.1937 208.5292)" class="st3" width="4.5" height="4.5"/>
	
		<rect x="32.7" y="256.6" transform="matrix(0.9097 -0.4152 0.4152 0.9097 -104.2946 37.8892)" class="st3" width="4.5" height="4.5"/>
	
		<rect x="469.6" y="148.6" transform="matrix(0.9993 3.677654e-02 -3.677654e-02 0.9993 5.9724 -17.3523)" class="st3" width="10.2" height="10.2"/>
	<rect x="533.7" y="156.9" transform="matrix(0.866 0.5 -0.5 0.866 155.2077 -248.8835)" class="st3" width="16.6" height="16.6"/>
	
		<rect x="51.5" y="201.8" transform="matrix(0.7071 0.7071 -0.7071 0.7071 166.1095 19.2423)" class="st3" width="16.6" height="16.6"/>
	
		<rect x="63.9" y="301.1" transform="matrix(0.639 0.7692 -0.7692 0.639 261.2459 57.1562)" class="st3" width="11.6" height="11.6"/>
</g>
<g id="_x31_">
	<path class="st4" d="M220.5,311.6l8.1,1.7l20.2-7.7c15.6-16.1,5-63.8,0-86.6l-15-79c-2.3-13.9-6-25.8-18.9-31.4l0,0
		c-2.8,0-4.9,2.5-4.4,5.2c2.7,14,3.4,60.7-6.2,118.4c-1.6,9.7,1.9,20.9,6.2,31.8C216.6,278.6,222,295.8,220.5,311.6z"/>
	<path class="st5" d="M209.8,118.6c0.4,6.5,2.2,8.8,2.2,8.8c2.1,0,3.8-3.9,3.2-9.3c-0.5-5.4-2.2-9.7-3.7-9.6
		C210,108.7,209.5,113.2,209.8,118.6z"/>
	<g>
		<path class="st6" d="M211.4,171.5c-0.2,0-0.4-0.1-0.5-0.4c-0.1-0.3,0.1-0.5,0.3-0.6c4.3-1.3,9.5-1.9,9.6-1.9
			c0.3,0,0.5,0.2,0.5,0.4c0,0.3-0.2,0.5-0.4,0.5c-0.1,0-5.2,0.7-9.4,1.9C211.5,171.5,211.5,171.5,211.4,171.5z"/>
	</g>
	<g>
		<path class="st6" d="M211.1,177.3c-0.2,0-0.4-0.2-0.5-0.4c0-0.3,0.1-0.5,0.4-0.6c4.9-0.8,9.9-0.9,9.9-0.9c0.3,0,0.5,0.2,0.5,0.5
			c0,0.3-0.2,0.5-0.5,0.5C220.9,176.4,216,176.5,211.1,177.3C211.1,177.3,211.1,177.3,211.1,177.3z"/>
	</g>
	<g>
		<path class="st6" d="M254.6,305.1C254.5,305.1,254.5,305.1,254.6,305.1c-0.4-0.1-0.5-0.3-0.5-0.6c0.1-0.3,5.4-29.2-0.1-57.2
			c-0.1-0.3,0.1-0.5,0.4-0.6c0.3-0.1,0.5,0.1,0.6,0.4c5.5,28.2,0.1,57.2,0.1,57.5C255,305,254.8,305.1,254.6,305.1z"/>
	</g>
	<path class="st5" d="M356.6,123.6c-6,2.6-8.6,3-4.5,10.8c1.6,2.9,5.5,2.4,10.3-0.2c4.8-2.6,7.4-7.1,5.8-10
		C366.5,121.3,361.6,121.4,356.6,123.6z"/>
	<path class="st4" d="M317.3,137.4l8.8,21.2l32.1-15.5c6.5-3.1,9.3-10.3,6.9-16.2v0c-1.3-3-4.8-4.6-8.1-3.4L317.3,137.4z"/>
	<polygon class="st4" points="324.6,183.5 336,198.2 358.5,180.7 350.6,163.2 	"/>
	<polygon class="st4" points="354.9,258.7 337.1,279.4 326.4,268.5 343.3,250 	"/>
	<polygon class="st4" points="360.9,226.3 337.5,245.3 328,231.4 349.9,214.6 	"/>
	<path class="st4" d="M334,212.1l-5.3,62.9c-3.6,11.2-11.7,19.9-21.7,24.6c-0.6,0.3-1.1,0.5-1.7,0.8c-8,3.3-13.6,10.7-14.6,19.3
		c0,0,0,0.1,0,0.1l-2,18.2l-4.3,37.9l-2.6,23c-4.6-5.9-19.6-12.4-38.2-16c-0.9-0.2-1.7-0.3-2.6-0.5c-9.5-1.7-18.3-2.3-25.4-1.9
		c-6.6,0.4-11.7,1.6-14.3,3.6l1.7-6.2l12.3-46.1l8.2-30.9c1.1-4,2-8.1,2.8-12.2l17.6-93.9L334,212.1z"/>
	<g>
		<path class="st6" d="M260.8,284.5c-0.1,0-0.1,0-0.2,0c-0.3-0.1-0.4-0.4-0.3-0.6c0.2-0.4,16.5-44.5,44-69c0.2-0.2,0.5-0.2,0.7,0
			c0.2,0.2,0.2,0.5,0,0.7c-27.3,24.4-43.6,68.2-43.7,68.6C261.2,284.4,261,284.5,260.8,284.5z"/>
	</g>
	<g>
		<path class="st7" d="M246.2,273.5h92.4c4,0,7.3-3.3,7.3-7.3V75.7c0-4-3.3-7.3-7.3-7.3h-92.4c-4,0-7.3,3.3-7.3,7.3v190.6
			C238.9,270.3,242.2,273.5,246.2,273.5z"/>
		<path class="st8" d="M251.2,267.6h82.3c3.7,0,6.7-3,6.7-6.7V81c0-3.7-3-6.7-6.7-6.7h-82.3c-3.7,0-6.7,3-6.7,6.7v179.9
			C244.5,264.6,247.5,267.6,251.2,267.6z"/>
		<path class="st7" d="M238.5,116.9h0.6c0.5,0,1-0.4,1-1v-14.5c0-0.5-0.4-1-1-1h-0.6c-0.5,0-1,0.4-1,1v14.5
			C237.5,116.4,238,116.9,238.5,116.9z"/>
		<path class="st7" d="M238.5,134.4h0.6c0.5,0,1-0.4,1-1v-14.5c0-0.5-0.4-1-1-1h-0.6c-0.5,0-1,0.4-1,1v14.5
			C237.5,134,238,134.4,238.5,134.4z"/>
		<path class="st7" d="M345.6,116.2h0.6c0.5,0,1-0.4,1-1v-13.1c0-0.5-0.4-1-1-1h-0.6c-0.5,0-1,0.4-1,1v13.1
			C344.6,115.8,345.1,116.2,345.6,116.2z"/>
		<g>
			<path class="st8" d="M284.3,71.9h6c0.2,0,0.4-0.2,0.4-0.4v-0.3c0-0.2-0.2-0.4-0.4-0.4h-6c-0.2,0-0.4,0.2-0.4,0.4v0.3
				C283.9,71.7,284.1,71.9,284.3,71.9z"/>
			<path class="st8" d="M296.1,71.4c0,1,0.8,1.8,1.8,1.8c1,0,1.8-0.8,1.8-1.8c0-1-0.8-1.8-1.8-1.8C296.9,69.5,296.1,70.4,296.1,71.4
				z"/>
			<path class="st8" d="M292.2,71.4c0,0.7,0.6,1.3,1.3,1.3c0.7,0,1.3-0.6,1.3-1.3c0-0.7-0.6-1.3-1.3-1.3
				C292.8,70.1,292.2,70.6,292.2,71.4z"/>
		</g>
	</g>
	<path class="st4" d="M327.4,242.9L327.4,242.9c0.9-2.6,3.7-4,6.5-3.1l17.5,7.5c5.1,2.2,6.8,8.3,3.1,11.7l-5.3,4.7l-16.6-8.4
		C328,253,325.8,247.5,327.4,242.9z"/>
	<path class="st4" d="M334,197.4c1.7-2.9,6-4.8,10.5-0.8l13.7,13.3c4.6,4.5,9.2,10.8,3.6,15.9l-8,6.3l-16.1-18.4
		C330.5,204.4,334,197.4,334,197.4z"/>
	<path class="st4" d="M352.1,185.5l4.5-3.3c7.2-5.2,8.8-15.2,3.6-22.5l-11.6-16.1c-1.9-3.2-6.4-3.7-8.9-1l0,0
		c-4.6,5-5.4,12.5-2,18.4L352.1,185.5z"/>
	<path class="st5" d="M338.1,241.9c5.5,2.7,7.8,3.3,4.9,8.5c-1.1,2-4.5,1.1-9-1.5c-4.4-2.5-7.1-6.1-6-8.1
		C329.2,239,333.6,239.7,338.1,241.9z"/>
	<path class="st5" d="M346,197.9c4.1,4.5,6.1,5.9,1.1,10c-1.9,1.5-4.8-0.6-7.9-4.6c-3.2-4-4.2-8.4-2.3-9.9
		C338.8,191.9,342.6,194.1,346,197.9z"/>
	<path class="st5" d="M350.9,146.3c3.6,5.4,5.5,7.3-0.3,10.7c-2.2,1.3-4.9-1.4-7.6-6.1c-2.7-4.7-3.1-9.6-1-10.9
		C344.2,138.7,347.9,141.7,350.9,146.3z"/>
	<g>
		<path class="st7" d="M196.9,400l2.8-10.4c-0.5-1-0.6-1.9-0.4-2.8c0.2-1.1,0.9-2,1.9-2.8c0.3-0.3,0.7-0.5,1.1-0.7
			c0.2-0.1,0.4-0.2,0.6-0.3c0.4-0.2,0.9-0.4,1.4-0.6c0.3-0.1,0.5-0.2,0.8-0.3c0.7-0.2,1.4-0.4,2.2-0.6c0.4-0.1,0.8-0.2,1.2-0.3
			c1.6-0.3,3.3-0.6,5.3-0.7c0.6,0,1.2-0.1,1.8-0.1c0.1,0,0.3,0,0.4,0c0.2,0,0.4,0,0.6,0c0.8,0,1.5-0.1,2.3-0.1c0.8,0,1.6,0,2.5,0
			c0.4,0,0.8,0,1.2,0c0.6,0,1.1,0,1.7,0.1c0.4,0,0.7,0,1.1,0c0.5,0,0.9,0,1.4,0.1c0.9,0.1,1.9,0.1,2.9,0.2c3.9,0.4,8.1,0.9,12.3,1.7
			c0.5,0.1,1.1,0.2,1.6,0.3c1.2,0.2,2.3,0.5,3.4,0.7c2.8,0.6,5.6,1.3,8.2,2c1.1,0.3,2.1,0.6,3.1,0.9c11.5,3.6,20.3,8.1,23.5,12.4
			c0.3,0.4,0.6,0.8,0.8,1.2H196.9z"/>
	</g>
	<g>
		<path class="st6" d="M351.3,229.8c-0.1,0-0.3-0.1-0.4-0.2l-10.5-11.9c-0.2-0.2-0.2-0.5,0-0.7c0.2-0.2,0.5-0.2,0.7,0l10.5,11.9
			c0.2,0.2,0.2,0.5,0,0.7C351.5,229.8,351.4,229.8,351.3,229.8z"/>
	</g>
	<g>
		<path class="st6" d="M352.1,179.1c-0.2,0-0.4-0.1-0.4-0.3c-0.1-0.1-0.4-0.3-0.7-0.4c-1.6-0.8-5-2.5-8.7-8.8
			c-0.1-0.2-0.1-0.5,0.2-0.7c0.2-0.1,0.5-0.1,0.7,0.2c3.5,6,6.7,7.7,8.3,8.4c0.6,0.3,1,0.5,1.2,0.9c0.1,0.2,0,0.5-0.3,0.6
			C352.2,179.1,352.2,179.1,352.1,179.1z"/>
	</g>
	<path class="st7" d="M290.6,319.6c1-8.6,6.6-16,14.6-19.3c0.6-0.2,1.1-0.5,1.7-0.8c0,0-4,1.3-16.1,2.3
		C281.1,302.7,288.7,310.1,290.6,319.6z"/>
	<path class="st7" d="M288.6,337.9l-4.3,37.9c-11.6,4-26.8,6.5-43.4,6.5h-0.7c-8.7,0-17.1-0.7-24.7-1.9c-4.5-0.7-8.7-1.6-12.7-2.7
		l12.3-46.1c7.7-1.3,16.2-1.9,25.1-1.9C259.3,329.8,276.4,332.9,288.6,337.9z"/>
	<path class="st9" d="M319,400H120.8c14.3-19.9,29.7-36.7,45.4-49.7c10.2-8.4,20.6-15.2,31-20.3c5.6-0.4,11.8-0.4,18.4-0.1
		c10.8,0.6,22.7,2.1,35,4.7c13.6,2.9,26.2,6.6,37.1,10.9c1.9,0.8,3.8,1.6,5.7,2.4c8.7,10.5,15.9,23.6,21.5,38.9
		C316.3,391.1,317.8,395.5,319,400z"/>
	<path class="st10" d="M332,92.2h-39.8c-1.1,0-2-0.9-2-2v-4.5c0-1.1,0.9-2,2-2H332c1.1,0,2,0.9,2,2v4.5
		C334,91.3,333.1,92.2,332,92.2z"/>
	<path class="st10" d="M331.6,113.4h-39.8c-1.1,0-2-0.9-2-2V98.7c0-1.1,0.9-2,2-2h39.8c1.1,0,2,0.9,2,2v12.7
		C333.6,112.5,332.7,113.4,331.6,113.4z"/>
	<path class="st10" d="M293.6,131.8h-40.3c-1.1,0-2-0.9-2-2v-2.3c0-1.1,0.9-2,2-2h40.3c1.1,0,2,0.9,2,2v2.3
		C295.6,130.9,294.7,131.8,293.6,131.8z"/>
	<path class="st10" d="M324.1,162.6h-70.8c-1.1,0-2-0.9-2-2v-2.3c0-1.1,0.9-2,2-2h70.8c1.1,0,2,0.9,2,2v2.3
		C326.1,161.7,325.2,162.6,324.1,162.6z"/>
	<path class="st10" d="M331.1,152.2h-77.8c-1.1,0-2-0.9-2-2V138c0-1.1,0.9-2,2-2h77.8c1.1,0,2,0.9,2,2v12.2
		C333.1,151.3,332.2,152.2,331.1,152.2z"/>
	
		<ellipse transform="matrix(0.7071 -0.7071 0.7071 0.7071 7.5773 218.6783)" class="st11" cx="267.8" cy="100.2" rx="16.5" ry="16.5"/>
	
		<ellipse transform="matrix(0.9213 -0.3889 0.3889 0.9213 -65.1861 131.6558)" class="st12" cx="292.6" cy="226.9" rx="26.2" ry="26.2"/>
	<g>
		
			<ellipse transform="matrix(0.7071 -0.7071 0.7071 0.7071 -42.0302 259.839)" class="st13" cx="292.6" cy="180.7" rx="9.5" ry="9.5"/>
		<g>
			<path class="st8" d="M292.5,185.9c-0.3,0-0.5-0.1-0.7-0.3l-4.8-5.2c-0.4-0.4-0.3-1,0.1-1.4c0.4-0.4,1-0.3,1.4,0.1l3.8,4.2
				l3.9-7.2c0.3-0.5,0.9-0.7,1.4-0.4c0.5,0.3,0.7,0.9,0.4,1.4l-4.6,8.4c-0.2,0.3-0.4,0.5-0.8,0.5
				C292.5,185.9,292.5,185.9,292.5,185.9z"/>
		</g>
	</g>
	<g>
		<g>
			<path class="st8" d="M276.9,230c-0.3,0-0.6-0.2-0.8-0.5c-1.3-2.7-2.3-8.9,0.4-14c2-3.7,5.7-6.1,10.6-6.8c0.5-0.1,0.9,0.3,1,0.7
				c0.1,0.5-0.3,0.9-0.7,1c-4.4,0.7-7.6,2.7-9.3,5.9c-2.3,4.3-1.6,9.8-0.4,12.4c0.2,0.4,0,0.9-0.4,1.1
				C277.2,230,277.1,230,276.9,230z"/>
		</g>
		<g>
			<path class="st8" d="M313,225.9c-0.1,0-0.2,0-0.2,0c-2.7-0.8-4.2-3.2-6.2-6.3c-1.7-2.8-3.9-6.2-7.5-9.4
				c-7.1-6.4-17.6-0.9-17.7-0.8c-0.4,0.2-0.9,0.1-1.2-0.3c-0.2-0.4-0.1-0.9,0.3-1.2c0.5-0.3,11.6-6.1,19.6,1c3.8,3.4,6,7,7.8,9.8
				c1.8,2.9,3.1,5,5.2,5.6c0.5,0.1,0.7,0.6,0.6,1.1C313.7,225.6,313.4,225.9,313,225.9z"/>
		</g>
		<g>
			<path class="st8" d="M292.4,237.6c-0.9,0-1.7-0.2-2.6-0.7c-2.4-1.3-3.8-4.6-3.5-8.3c0.2-3.4,1.8-6.1,4.1-7c5.1-2,8.3,1.3,8.4,1.4
				c0.3,0.3,0.3,0.9,0,1.2c-0.3,0.3-0.9,0.3-1.2,0l0,0c-0.1-0.1-2.6-2.6-6.5-1c-2,0.8-2.9,3.4-3,5.5c-0.2,2.5,0.6,5.6,2.6,6.7
				c2,1.1,4.2,0,5.5-1.2c1.3-1.2,2.3-3.4,1.3-5.3c-0.7-1.4-1.8-2-2.8-1.7c-1.2,0.4-2.2,2-1.9,4.4c0.1,0.5-0.3,0.9-0.7,1
				c-0.5,0.1-0.9-0.3-1-0.7c-0.4-3.5,1.3-5.7,3.1-6.2c1.4-0.5,3.5,0,4.8,2.5c1.2,2.3,0.6,5.2-1.6,7.3
				C296.1,236.7,294.3,237.6,292.4,237.6z"/>
		</g>
		<g>
			<path class="st8" d="M285.6,233.6c-0.3,0-0.6-0.2-0.7-0.4c-0.1-0.2-3.3-6.1-1-13.1c1-2.9,3.5-4.8,6.7-5
				c4.4-0.3,10.8,2.4,15.3,11.1c0.2,0.4,0.1,0.9-0.4,1.1c-0.4,0.2-0.9,0.1-1.1-0.4c-4.1-8-9.9-10.5-13.6-10.2
				c-2.6,0.2-4.5,1.6-5.2,3.9c-2.1,6.3,0.8,11.7,0.9,11.7c0.2,0.4,0.1,0.9-0.3,1.2C285.9,233.5,285.8,233.6,285.6,233.6z"/>
		</g>
		<g>
			<path class="st8" d="M280.9,229.5c-0.3,0-0.6-0.2-0.8-0.5c-0.2-0.4-3.7-9,1.9-14.5c2.6-2.6,5.7-3.9,9.1-3.8
				c4.2,0.2,8.5,2.7,12.5,7.2c0.3,0.4,0.3,0.9-0.1,1.2c-0.4,0.3-0.9,0.3-1.2-0.1c-3.6-4.2-7.5-6.5-11.3-6.6c-2.8-0.1-5.5,1-7.8,3.3
				c-4.7,4.7-1.5,12.6-1.5,12.6c0.2,0.4,0,0.9-0.5,1.1C281.1,229.4,281,229.5,280.9,229.5z"/>
		</g>
		<g>
			<path class="st8" d="M293,241.6c-2.6,0-4.3-1.3-4.4-1.4c-0.4-0.3-0.4-0.8-0.1-1.2c0.3-0.4,0.8-0.4,1.2-0.1
				c0.1,0.1,3.1,2.4,7.2-0.3c2.4-1.6,4.6-3.3,5-5.6c0.2-1.5-0.4-3.2-1.9-5.1c-0.3-0.4-0.2-0.9,0.1-1.2c0.4-0.3,0.9-0.2,1.2,0.1
				c1.8,2.2,2.5,4.4,2.2,6.4c-0.5,3-3,5-5.7,6.8C296.1,241.3,294.4,241.6,293,241.6z"/>
		</g>
		<g>
			<path class="st8" d="M293.8,246.3c-1.2,0-2.5-0.2-3.7-0.6c-2.7-0.9-4.5-2.6-5.1-5c-0.9-3.2-2-5.5-3.3-7c-0.1-0.2-0.3-0.3-0.3-0.5
				c-0.1-0.5,0.2-0.9,0.6-1c0.4-0.1,0.7,0.1,0.9,0.4l0.1,0.1c1.5,1.7,2.8,4.3,3.7,7.7c0.6,2.3,2.5,3.4,4,3.8c2.8,0.9,6.4,0.5,8.1-1
				c1.1-0.9,1.4-1.7,1.7-2.5c0.6-1.7,1.3-2.7,4.7-1.9c1.3,0.3,2.2,0.1,2.6-0.5c0.8-1.1,0.4-3.3-0.4-4.6c-0.6-1-1.4-1.8-2.2-2.6
				c-1.1-1.2-2.5-2.5-3.5-4.6c-0.2-0.4-0.1-0.9,0.4-1.1c0.4-0.2,0.9-0.1,1.1,0.4c1,1.9,2.1,3.1,3.3,4.2c0.9,0.9,1.7,1.8,2.4,2.9
				c1.1,1.8,1.6,4.7,0.4,6.5c-0.6,0.9-1.9,1.8-4.4,1.2c-2.2-0.5-2.3-0.2-2.8,0.9c-0.3,0.9-0.8,2.1-2.2,3.2
				C298.4,245.7,296.2,246.3,293.8,246.3z"/>
		</g>
		<g>
			<path class="st8" d="M293.9,249.6c-1.1,0-2.4-0.1-3.7-0.3c-9.7-1.7-12.2-13.6-12.1-14.6c0-0.5,0.5-0.8,0.9-0.8
				c0.4,0,0.7,0.4,0.8,0.8c0.1,0.4,1.9,11.4,10.7,12.9c8.8,1.5,12.7-3.1,12.9-3.3c0.3-0.4,0.8-0.4,1.2-0.1c0.4,0.3,0.4,0.8,0.1,1.2
				C304.5,245.6,301.2,249.6,293.9,249.6z"/>
		</g>
		<g>
			<path class="st8" d="M306.4,246.9c-0.3,0-0.6-0.2-0.8-0.5c-0.2-0.4,0-0.9,0.4-1.1c0.7-0.3,4.5-2.6,5.3-5.1c0.8-2.8-0.4-7.1-2.5-9
				c-0.4-0.3-0.4-0.8-0.1-1.2c0.3-0.4,0.8-0.4,1.2-0.1c2.7,2.3,4.1,7.3,3,10.7c-1.1,3.5-6.1,6.1-6.2,6.1
				C306.7,246.9,306.5,246.9,306.4,246.9z"/>
		</g>
	</g>
	<g>
		<defs>
			
				<ellipse id="SVGID_1_" transform="matrix(0.7071 -0.7071 0.7071 0.7071 7.5773 218.6783)" cx="267.8" cy="100.2" rx="16.5" ry="16.5"/>
		</defs>
		<clipPath id="SVGID_2_">
			<use xlink:href="#SVGID_1_"  style="overflow:visible;"/>
		</clipPath>
		<g class="st14">
			<path class="st15" d="M266.7,114.2c1.7,4.4,0.3,8.9-3,10.2c-3.3,1.3-7.4-1.2-9.1-5.6c-1.7-4.4-0.3-8.9,3-10.2
				C261,107.3,265.1,109.8,266.7,114.2z"/>
			<path class="st15" d="M269.6,115.7c-0.6,4.6,1.8,8.6,5.3,9.1c3.5,0.5,6.9-2.8,7.5-7.4c0.6-4.6-1.8-8.6-5.3-9.1
				C273.6,107.8,270.2,111.1,269.6,115.7z"/>
			<path class="st16" d="M268.7,92c0-2.4-2.5-3.1-4.7-3.1c-2.1,0-3.2,1.4-3.2,4.2h0v0.2c0,0,0,0.1,0,0.1c0,0,0,0,0,0.1v11.3h7.9
				V93.1h-0.1C268.7,92.7,268.7,92.4,268.7,92z"/>
			<path class="st15" d="M281.5,132.2h-26.8c0.7-1,1-2.4,1.3-4.1c0.3-2,0.4-4.4,0.6-7c0.3-4.2,0.8-8.8,2.5-13.2
				c6,0.7,11.9,0.7,17.9,0c2.1,5.2,2,10.6,2.2,15.3c0.1,2.5,0.2,4.8,0.8,6.6c0,0,0,0,0,0c0.1,0.3,0.2,0.6,0.4,0.9c0,0,0,0,0,0v0
				C280.7,131.3,281.1,131.8,281.5,132.2z"/>
			<path class="st17" d="M277.3,107.6l-7.1,10.7c-0.7,1.1-2.3,1.2-3.1,0.2l-8.9-10.8l2-5.3h15L277.3,107.6z"/>
			<path class="st18" d="M265.2,102.8c-0.1,0.3,1.6,3.4,5.8,3.1s1.4-3.2,1.4-3.2l-3.2,0.1H265.2z"/>
			<path class="st16" d="M270.3,96.9l0.9,4.6c0,0-1.9,3.6-1.1,5.6c0.7,1.7,4.7,1.9,5.9,4.4c0,0,0,0,0,0.1c0.1,0.3,0.2,0.6,0.3,0.9
				c0.7,1.7,2.1,2.8,3.5,2.8c0.2,0,0.4,0,0.6-0.1c1.8-0.4,2.8-2.8,2.3-5.2c-0.5-2-1.8-3.4-3.3-3.7c0.7-0.9,1.2-2.1,1.2-3.3
				c0-1.6-0.7-3.1-1.8-4c-0.2-0.2-0.5-0.4-0.8-0.5c-1-0.7-2.6-2-3.5-3.7c-0.1-0.3-0.2-0.5-0.3-0.8c-0.1-0.2-0.1-0.5-0.2-0.8h-4.4
				l0.2,1.2L270.3,96.9z"/>
			<path class="st18" d="M269.3,96.9c0.3,0,0.7,0,1-0.1c2-0.3,3.4-1.5,4.1-2.3c-0.1-0.3-0.2-0.5-0.3-0.8l-3-0.5c0,0-0.6,0.4-1.3,0.9
				C268.4,95.3,267,96.9,269.3,96.9z"/>
			<path class="st16" d="M265.1,102.6l-4.3-3.9c0.1,3.4-3.5,3.3-6.2,4.6c-1.9,0.9-3.1,3.9-2.4,6.1c0.5,1.6-1.1,2.6-0.9,4.7
				c0.3,3,3.4,3.5,5,1.9c0.8-0.8,0.7-2,0.4-3.3c0,0,0,0,0,0c-1-3.5,2.6-4,6.2-4.6C266.4,107.5,265.1,102.6,265.1,102.6z"/>
			<path class="st17" d="M272,100.8c-0.3,2.1-1.2,3.5-3.7,3.8c-2.8,0.3-4.4-1.7-4.7-4.2c-0.2-1.3-0.1-1.9-0.1-3.2
				c0.2-0.1,0.6-0.4,0.6-0.8c0.1-1.4-0.2-4.7,2.8-4.7c0.6,0,1.9-0.1,1.9-0.2c1.1,0.1,2.3,0.2,3.4,0.4C272.4,94.8,272.4,98,272,100.8
				z"/>
			<path class="st17" d="M264.1,97.7c0.5,0.6,0.6,1.5,0.1,1.9c-0.5,0.4-1.3,0.2-1.8-0.5c-0.5-0.6-0.6-1.5-0.1-1.9
				S263.5,97,264.1,97.7z"/>
			<path class="st16" d="M272.6,87.8c2.3,1.6,3.3,4.9,2.3,6.3c-1,1.4-3.7,1.3-6-0.3c-2.3-1.6-3.2-4.1-2.2-5.6
				C267.8,86.5,270.3,86.2,272.6,87.8z"/>
			<path class="st18" d="M260.5,124.2c-2.2,0.8-3.5,2.5-4.4,4c0.3-1.8,0.4-4,0.6-6.3C257.4,122.9,258.6,123.8,260.5,124.2z"/>
			<path class="st18" d="M280.1,129.8c-1.1-2.3-2.9-4.1-4.1-5.1c1.4-0.2,2.4-0.8,3.3-1.5C279.3,125.7,279.4,127.9,280.1,129.8z"/>
		</g>
	</g>
</g>
<g id="_x32_">
	<path class="st4" d="M482.1,400H363.7c-2-0.9-3.9-2-5.7-3.2c-6.2-4.1-11.3-9.7-14.8-16.5l-21.1-41.1c-3.3-6.4-0.9-14.3,5.4-17.8
		l15.7-8.6l6.6,8.6l73.7-1.6l-11.5-22.6l6.2-3.2c6.8-3.4,15.1-0.8,18.5,6l0.6,1.2c6.1,12,11.4,24.4,15.7,37.2l7.3,22.5
		c3.9,12,9.8,23.2,17.4,33.2L482.1,400z"/>
	<path class="st4" d="M365.7,302.8l-23.3,34.9l-18.2-13.9l30.9-40.5c2.2-2.9,6.5-3,8.9-0.2l0.6,0.7
		C369.2,289.2,369.6,296.9,365.7,302.8z"/>
	<path class="st4" d="M393.6,325.3l-25,18.9l-71.3-105.6c-2.2-3.3-2.8-7.5-1.5-11.3l0,0c0.7-2.1,2.6-3.5,4.7-3.7l1.2-0.1
		c3.4-0.2,6.7,1.2,8.9,3.8L393.6,325.3z"/>
	<path class="st5" d="M306.6,226.5c3.8,5.3,5.9,7-1.2,11.4c-2.6,1.6-5.7-0.9-8.5-5.5c-2.8-4.7-2.9-9.8-0.3-11.4
		C299.4,219.3,303.4,222.1,306.6,226.5z"/>
	<g>
		<path class="st6" d="M329.2,274.4c-0.3,0-0.5-0.3-0.5-0.5c0-1,4.6-5.6,9.7-6.9c0.3-0.1,0.5,0.1,0.6,0.3c0.1,0.3-0.1,0.5-0.3,0.6
			c-4.7,1.2-8.7,5.4-8.9,6C329.7,274.2,329.5,274.4,329.2,274.4C329.2,274.4,329.2,274.4,329.2,274.4z"/>
	</g>
	<g>
		<path class="st6" d="M334.7,277c-0.1,0-0.2,0-0.3-0.1c-0.2-0.1-0.3-0.5-0.1-0.7c0.1-0.2,2.7-4,5.6-4.6c0.3-0.1,0.5,0.1,0.6,0.4
			c0,0.3-0.1,0.5-0.4,0.6c-2.6,0.5-5,4.1-5,4.1C335,276.9,334.8,277,334.7,277z"/>
	</g>
	<path class="st4" d="M426.5,333.4l-20.2,19.4l-60-69.1l2.4-1.6c6.1-4.1,14.1-4.2,20.3-0.2l16.8,10.8c4,2.6,7.6,5.6,10.9,9
		L426.5,333.4z"/>
	<path class="st4" d="M437.7,328.8l-18.4,12.1l-28.6-43.6l2.4-1.6c8.9-5.8,20.7-3.4,26.6,5.5L437.7,328.8z"/>
	<path class="st7" d="M370.9,359.8c-3.2,5.6-12,5.6-12.5-2.4c-0.5-8-1.9-24.5-2.7-26.1C360.6,340.7,366.2,351.3,370.9,359.8z"/>
	<g>
		<path class="st6" d="M372.6,363.4c-0.2,0-0.3-0.1-0.4-0.3c-0.6-1-1.1-2-1.7-3.1c-4-7.2-9.1-16.8-15.2-28.5c0,0,0-0.1,0-0.1
			c-3.9-14.5-27.8-46.7-28.1-47c-0.2-0.2-0.1-0.5,0.1-0.7c0.2-0.2,0.5-0.1,0.7,0.1c1,1.3,24.2,32.6,28.2,47.3
			c6.1,11.7,11.2,21.3,15.1,28.4c0.6,1.1,1.2,2.1,1.7,3.1c0.1,0.2,0,0.5-0.2,0.7C372.8,363.4,372.7,363.4,372.6,363.4z"/>
	</g>
	<g>
		<path class="st6" d="M390.2,328.3c-0.2,0-0.4-0.1-0.5-0.3c-4.5-11.5-37.6-50.9-39.2-52.2c-0.2-0.1-0.3-0.4-0.1-0.7
			c0.1-0.2,0.5-0.3,0.7-0.2c1.7,1.1,35.1,41.1,39.6,52.6c0.1,0.3,0,0.5-0.3,0.6C390.3,328.3,390.3,328.3,390.2,328.3z"/>
	</g>
	<g>
		<path class="st6" d="M408.3,318c-0.2,0-0.4-0.1-0.4-0.3c-7.7-16.5-19.8-22.8-19.9-22.9c-0.2-0.1-0.3-0.4-0.2-0.7
			c0.1-0.2,0.4-0.3,0.7-0.2c0.1,0.1,12.5,6.6,20.3,23.3c0.1,0.2,0,0.5-0.2,0.7C408.5,318,408.4,318,408.3,318z"/>
	</g>
	<g>
		<path class="st6" d="M424.3,310c-0.2,0-0.4-0.1-0.4-0.3c-5.8-12.7-13.4-14.2-13.5-14.2c-0.3,0-0.4-0.3-0.4-0.6s0.3-0.4,0.6-0.4
			c0.3,0.1,8.2,1.6,14.2,14.7c0.1,0.2,0,0.5-0.2,0.6C424.4,310,424.4,310,424.3,310z"/>
	</g>
	<g>
		<path class="st6" d="M354.7,329.8c-0.1,0-0.2,0-0.2-0.1c-6-3.3-14.1-2-18.4-1.2c-1.4,0.2-2.4,0.4-2.9,0.3c-0.3,0-0.5-0.3-0.4-0.6
			c0-0.3,0.3-0.5,0.6-0.4c0.3,0.1,1.4-0.1,2.6-0.3c4.5-0.7,12.8-2.1,19.1,1.3c0.2,0.1,0.3,0.4,0.2,0.7
			C355,329.7,354.9,329.8,354.7,329.8z"/>
	</g>
</g>
<g id="icons">
	
		<ellipse transform="matrix(0.2329 -0.9725 0.9725 0.2329 -11.463 225.4768)" class="st19" cx="137.2" cy="120" rx="31.1" ry="31.1"/>
	
		<ellipse transform="matrix(0.2337 -0.9723 0.9723 0.2337 257.4238 502.4485)" class="st5" cx="447.5" cy="87.9" rx="39.9" ry="39.9"/>
	<g>
		<g>
			<path class="st5" d="M148.5,118.5c-2.9,0-5.8-1.3-7.7-3.8c-3.2-4.3-2.3-10.3,1.9-13.5l0,0c4.3-3.2,10.3-2.3,13.5,1.9
				c3.2,4.3,2.3,10.3-1.9,13.5C152.6,117.9,150.6,118.5,148.5,118.5z M145.2,104.4L145.2,104.4c-2.4,1.8-2.9,5.3-1.1,7.8
				c1.8,2.4,5.3,2.9,7.8,1.1c2.4-1.8,2.9-5.3,1.1-7.8C151.1,103.1,147.6,102.6,145.2,104.4z"/>
		</g>
		<g>
			<g>
				
					<rect x="114.3" y="121" transform="matrix(0.7994 -0.6008 0.6008 0.7994 -47.6283 102.7676)" class="st5" width="31.6" height="3.4"/>
			</g>
		</g>
		<g>
			<g>
				
					<rect x="119.2" y="128.8" transform="matrix(0.7994 -0.6008 0.6008 0.7994 -56.3776 99.5429)" class="st5" width="3.4" height="10.7"/>
			</g>
		</g>
		<g>
			<g>
				
					<rect x="125.9" y="127.2" transform="matrix(0.7994 -0.6008 0.6008 0.7994 -53.6484 103.1631)" class="st5" width="3.4" height="9.5"/>
			</g>
		</g>
		<g>
			<g>
				
					<rect x="128" y="124.5" transform="matrix(0.7994 -0.6008 0.6008 0.7994 -50.3665 103.4245)" class="st5" width="3.4" height="5.2"/>
			</g>
		</g>
		<g>
			<g>
				
					<rect x="122.8" y="133.4" transform="matrix(0.7994 -0.6008 0.6008 0.7994 -56.2536 101.7168)" class="st5" width="2.8" height="3.4"/>
			</g>
		</g>
	</g>
	<path class="st19" d="M465.8,69.4v10.2c0,13.7-6.8,26.6-18.2,34.2l-0.1-0.1c-11.9-7.6-19-20.7-19-34.7v-9.6c0.6,0,4.1-0.6,7.9-1.4
		c7.5-1.4,15.2-1.4,22.6,0L465.8,69.4z"/>
	<g>
		<polygon class="st20" points="160.1,270.8 108.8,270.8 106.2,236.1 157.6,236.1 		"/>
		<polygon class="st19" points="166.3,238.1 160.3,270.8 108.9,270.8 116,232.4 132.9,232.4 133.9,238.1 		"/>
	</g>
	<path class="st19" d="M456.7,215.5c0,2.5-2.1,4.6-4.6,4.6c-2.5,0-4.6-2.1-4.6-4.6s2.1-4.6,4.6-4.6
		C454.6,210.9,456.7,213,456.7,215.5z"/>
	<g>
		<path class="st19" d="M386,31.5c-1.8,0-3.2-1.5-3.2-3.2s1.5-3.2,3.2-3.2c1.8,0,3.2,1.5,3.2,3.2S387.8,31.5,386,31.5z M386,26
			c-1.2,0-2.2,1-2.2,2.2s1,2.2,2.2,2.2c1.2,0,2.2-1,2.2-2.2S387.3,26,386,26z"/>
	</g>
	<g>
		<path class="st19" d="M477.6,312.5c-6.7,0-12.2-5.5-12.2-12.2c0-6.7,5.5-12.2,12.2-12.2c6.7,0,12.2,5.5,12.2,12.2
			C489.8,307,484.4,312.5,477.6,312.5z M477.6,289.1c-6.2,0-11.2,5-11.2,11.2s5,11.2,11.2,11.2c6.2,0,11.2-5,11.2-11.2
			S483.8,289.1,477.6,289.1z"/>
	</g>
</g>
</svg>
